<svg xmlns="http://www.w3.org/2000/svg" width="128" height="128" viewBox="0 0 128 128">
  <!-- Background: laterite red-orange -->
  <rect width="128" height="128" rx="16" fill="#C0522A"/>
  <!-- Paddy field terraces -->
  <rect x="8" y="80" width="112" height="12" rx="2" fill="#4A7C3F"/>
  <rect x="8" y="96" width="112" height="12" rx="2" fill="#5E9E50"/>
  <rect x="8" y="112" width="112" height="12" rx="2" fill="#4A7C3F"/>
  <!-- Hill / Western Ghats silhouette -->
  <ellipse cx="64" cy="72" rx="55" ry="40" fill="#2D5A1B"/>
  <ellipse cx="32" cy="78" rx="30" ry="30" fill="#3A7025"/>
  <ellipse cx="96" cy="76" rx="28" ry="28" fill="#3A7025"/>
  <!-- Sun / golden hour -->
  <circle cx="64" cy="36" r="18" fill="#F5C842"/>
  <circle cx="64" cy="36" r="14" fill="#FDE76A"/>
  <!-- Paddy stalks in foreground -->
  <line x1="20" y1="80" x2="20" y2="60" stroke="#8BC34A" stroke-width="2"/>
  <ellipse cx="20" cy="58" rx="4" ry="6" fill="#8BC34A"/>
  <line x1="36" y1="80" x2="36" y2="55" stroke="#8BC34A" stroke-width="2"/>
  <ellipse cx="36" cy="53" rx="4" ry="6" fill="#AED65A"/>
  <line x1="92" y1="80" x2="92" y2="58" stroke="#8BC34A" stroke-width="2"/>
  <ellipse cx="92" cy="56" rx="4" ry="6" fill="#8BC34A"/>
  <line x1="108" y1="80" x2="108" y2="62" stroke="#8BC34A" stroke-width="2"/>
  <ellipse cx="108" cy="60" rx="4" ry="6" fill="#AED65A"/>
</svg>
